<?xml version="1.0" encoding="UTF-8"?>
<!DOCTYPE svg PUBLIC "-//W3C//DTD SVG 1.1//EN" "http://www.w3.org/Graphics/SVG/1.1/DTD/svg11.dtd">
<svg xmlns="http://www.w3.org/2000/svg" version="1.1" width="256px" height="171px" style="shape-rendering:geometricPrecision; text-rendering:geometricPrecision; image-rendering:optimizeQuality; fill-rule:evenodd; clip-rule:evenodd" xmlns:xlink="http://www.w3.org/1999/xlink">
<g><path style="opacity:1" fill="#000000" d="M -0.5,-0.5 C 84.8333,-0.5 170.167,-0.5 255.5,-0.5C 255.5,56.5 255.5,113.5 255.5,170.5C 170.167,170.5 84.8333,170.5 -0.5,170.5C -0.5,113.5 -0.5,56.5 -0.5,-0.5 Z"/></g>
<g><path style="opacity:1" fill="#928d88" d="M 106.5,36.5 C 106.5,43.1667 106.5,49.8333 106.5,56.5C 104.833,56.5 103.167,56.5 101.5,56.5C 102.568,55.5655 103.901,55.2322 105.5,55.5C 105.177,48.9779 105.51,42.6446 106.5,36.5 Z"/></g>
<g><path style="opacity:1" fill="#efe6dc" d="M 114.5,49.5 C 123.163,50.8819 125.996,55.8819 123,64.5C 118.607,67.7799 113.774,70.1132 108.5,71.5C 108.286,69.8561 108.62,68.3561 109.5,67C 112.912,65.5455 116.079,63.7121 119,61.5C 120.334,57.5146 119.001,54.8479 115,53.5C 114.51,52.2068 114.343,50.8734 114.5,49.5 Z"/></g>
<g><path style="opacity:1" fill="#f5ece0" d="M 106.5,36.5 C 107.552,36.3505 108.552,36.5172 109.5,37C 112.069,40.073 115.069,42.573 118.5,44.5C 116.55,46.7528 114.216,47.0861 111.5,45.5C 110.67,51.1376 110.17,56.8042 110,62.5C 106.952,66.0095 103.619,66.3428 100,63.5C 99.3333,61.5 99.3333,59.5 100,57.5C 100.383,56.944 100.883,56.6107 101.5,56.5C 103.167,56.5 104.833,56.5 106.5,56.5C 106.5,49.8333 106.5,43.1667 106.5,36.5 Z"/></g>
<g><path style="opacity:1" fill="#f7ebe0" d="M 81.5,100.5 C 81.44,99.9569 81.1067,99.6236 80.5,99.5C 79.513,102.768 79.1796,106.102 79.5,109.5C 78.6046,115.385 75.1046,118.385 69,118.5C 67.5643,118.441 66.231,118.108 65,117.5C 64.3333,97.5 64.3333,77.5 65,57.5C 69.7367,56.5308 74.57,56.1975 79.5,56.5C 79.238,57.9778 79.5713,59.3112 80.5,60.5C 82.0009,59.2485 83.6675,58.2485 85.5,57.5C 86.2304,55.6587 86.8971,53.8254 87.5,52C 92.4927,49.3329 97.4927,46.9996 102.5,45C 103.747,46.4936 103.747,47.9936 102.5,49.5C 99.1667,51.1667 95.8333,52.8333 92.5,54.5C 91.1667,57.1667 91.1667,59.8333 92.5,62.5C 95.8772,63.2709 98.7106,64.9376 101,67.5C 101.635,70.5481 100.301,72.2148 97,72.5C 84.44,68.3771 79.1067,73.0437 81,86.5C 84.3634,92.4845 89.1967,93.9845 95.5,91C 98.8789,87.5884 100.379,83.4217 100,78.5C 107.272,70.8825 111.105,72.3825 111.5,83C 108.724,98.7359 99.3906,105.069 83.5,102C 82.9558,101.283 82.2891,100.783 81.5,100.5 Z"/></g>
<g><path style="opacity:1" fill="#fdfaef" d="M 170.5,67.5 C 172.199,67.3398 173.866,67.5065 175.5,68C 174.584,68.2784 173.918,68.7784 173.5,69.5C 172.835,71.6979 172.168,74.0312 171.5,76.5C 170.516,73.5719 170.183,70.5719 170.5,67.5 Z"/></g>
<g><path style="opacity:1" fill="#ede7dd" d="M 188.5,66.5 C 193.339,65.6766 195.673,67.6766 195.5,72.5C 193.396,72.2011 191.396,72.5344 189.5,73.5C 190.776,74.6446 192.109,74.6446 193.5,73.5C 194.711,74.2739 194.711,75.1072 193.5,76C 189.167,77.4894 186.833,75.9894 186.5,71.5C 186.437,69.4861 187.103,67.8194 188.5,66.5 Z"/></g>
<g><path style="opacity:1" fill="#bdb5ae" d="M 170.5,67.5 C 173.061,66.2329 175.728,66.2329 178.5,67.5C 176.774,69.8201 176.107,72.4867 176.5,75.5C 176.06,73.1561 175.06,71.1561 173.5,69.5C 173.918,68.7784 174.584,68.2784 175.5,68C 173.866,67.5065 172.199,67.3398 170.5,67.5 Z"/></g>
<g><path style="opacity:1" fill="#dcd5cc" d="M 176.5,75.5 C 176.107,72.4867 176.774,69.8201 178.5,67.5C 180.223,66.193 182.057,66.193 184,67.5C 184.498,70.4816 184.665,73.4816 184.5,76.5C 183.5,76.5 182.5,76.5 181.5,76.5C 181.5,74.1667 181.5,71.8333 181.5,69.5C 180.5,69.5 179.5,69.5 178.5,69.5C 178.808,71.924 178.474,74.2573 177.5,76.5C 176.893,76.3764 176.56,76.0431 176.5,75.5 Z"/></g>
<g><path style="opacity:1" fill="#272626" d="M 189.5,68.5 C 191.983,68.73 192.483,69.3966 191,70.5C 189.97,70.1639 189.47,69.4972 189.5,68.5 Z"/></g>
<g><path style="opacity:1" fill="#545250" d="M 133.5,71.5 C 133.666,77.1764 133.499,82.8431 133,88.5C 132.487,87.4734 131.987,86.4734 131.5,85.5C 132.167,80.8333 132.833,76.1667 133.5,71.5 Z"/></g>
<g><path style="opacity:1" fill="#f5ebdf" d="M 152.5,99.5 C 150.735,100.461 148.735,100.795 146.5,100.5C 144.523,98.1862 142.523,95.8528 140.5,93.5C 139.52,96.0865 139.187,98.7531 139.5,101.5C 137.265,101.795 135.265,101.461 133.5,100.5C 133.664,97.8127 133.497,95.146 133,92.5C 132.59,93.9007 132.09,95.234 131.5,96.5C 125.42,103.099 119.253,103.099 113,96.5C 110.272,89.0113 112.438,83.5113 119.5,80C 124.813,79.0457 128.813,80.879 131.5,85.5C 131.987,86.4734 132.487,87.4734 133,88.5C 133.499,82.8431 133.666,77.1764 133.5,71.5C 135.265,70.5386 137.265,70.2053 139.5,70.5C 139.334,76.1764 139.501,81.8431 140,87.5C 142.19,85.6116 144.023,83.4449 145.5,81C 147.902,80.1859 150.235,80.3526 152.5,81.5C 150.082,83.9092 148.082,86.5759 146.5,89.5C 148.092,93.0891 150.092,96.4224 152.5,99.5 Z"/></g>
<g><path style="opacity:1" fill="#f2e8dd" d="M 160.5,71.5 C 160.172,76.8746 160.505,82.2079 161.5,87.5C 162.107,87.3764 162.44,87.0431 162.5,86.5C 164.912,81.3861 168.912,79.5527 174.5,81C 172.286,83.9254 169.953,86.7587 167.5,89.5C 170.083,92.9974 172.416,96.6641 174.5,100.5C 172.235,101.647 169.902,101.814 167.5,101C 165.667,98.5 163.833,96 162,93.5C 160.625,95.9368 160.125,98.6035 160.5,101.5C 158.5,101.5 156.5,101.5 154.5,101.5C 154.5,91.1667 154.5,80.8333 154.5,70.5C 156.735,70.2053 158.735,70.5386 160.5,71.5 Z"/></g>
<g><path style="opacity:1" fill="#676360" d="M 160.5,71.5 C 161.167,76.5 161.833,81.5 162.5,86.5C 162.44,87.0431 162.107,87.3764 161.5,87.5C 160.505,82.2079 160.172,76.8746 160.5,71.5 Z"/></g>
<g><path style="opacity:1" fill="#ebe5dc" d="M 165.5,73.5 C 166.5,73.5 167.5,73.5 168.5,73.5C 168.5,74.5 168.5,75.5 168.5,76.5C 167.5,76.5 166.5,76.5 165.5,76.5C 165.5,75.5 165.5,74.5 165.5,73.5 Z"/></g>
<g><path style="opacity:1" fill="#f2e9dd" d="M 179.5,79.5 C 182.187,79.3359 184.854,79.5026 187.5,80C 192.182,81.579 192.516,83.4124 188.5,85.5C 186.125,84.4174 183.792,84.4174 181.5,85.5C 185.286,87.036 188.786,89.036 192,91.5C 192.288,99.9782 188.121,103.145 179.5,101C 173.799,99.5123 173.299,97.3457 178,94.5C 180.845,96.6061 183.678,96.7728 186.5,95C 182.614,93.4728 179.114,91.3061 176,88.5C 174.665,84.3919 175.832,81.3919 179.5,79.5 Z"/></g>
<g><path style="opacity:1" fill="#171616" d="M 120.5,85.5 C 125.325,85.4881 127.491,87.8214 127,92.5C 124.339,95.9661 121.339,96.2994 118,93.5C 117.018,90.2253 117.851,87.5586 120.5,85.5 Z"/></g>
<g><path style="opacity:1" fill="#53514f" d="M 133.5,100.5 C 132.833,99.1667 132.167,97.8333 131.5,96.5C 132.09,95.234 132.59,93.9007 133,92.5C 133.497,95.146 133.664,97.8127 133.5,100.5 Z"/></g>
<g><path style="opacity:1" fill="#88837e" d="M 152.5,99.5 C 153.043,99.56 153.376,99.8933 153.5,100.5C 151.027,101.797 148.693,101.797 146.5,100.5C 148.735,100.795 150.735,100.461 152.5,99.5 Z"/></g>
<g><path style="opacity:1" fill="#7e7976" d="M 81.5,100.5 C 80.8333,103.5 80.1667,106.5 79.5,109.5C 79.1796,106.102 79.513,102.768 80.5,99.5C 81.1067,99.6236 81.44,99.9569 81.5,100.5 Z"/></g>
</svg>
